<svg id="visual" viewBox="0 0 900 450" width="900" height="450" xmlns="http://www.w3.org/2000/svg" xmlns:xlink="http://www.w3.org/1999/xlink" version="1.1"><path d="M0 399L10.7 397C21.3 395 42.7 391 64.2 392.8C85.7 394.7 107.3 402.3 128.8 399.5C150.3 396.7 171.7 383.3 193 385.2C214.3 387 235.7 404 257 408.3C278.3 412.7 299.7 404.3 321.2 400C342.7 395.7 364.3 395.3 385.8 391.8C407.3 388.3 428.7 381.7 450 379.5C471.3 377.3 492.7 379.7 514.2 378.3C535.7 377 557.3 372 578.8 373.8C600.3 375.7 621.7 384.3 643 392C664.3 399.7 685.7 406.3 707 406.5C728.3 406.7 749.7 400.3 771.2 400.2C792.7 400 814.3 406 835.8 409.5C857.3 413 878.7 414 889.3 414.5L900 415L900 451L889.3 451C878.7 451 857.3 451 835.8 451C814.3 451 792.7 451 771.2 451C749.7 451 728.3 451 707 451C685.7 451 664.3 451 643 451C621.7 451 600.3 451 578.8 451C557.3 451 535.7 451 514.2 451C492.7 451 471.3 451 450 451C428.7 451 407.3 451 385.8 451C364.3 451 342.7 451 321.2 451C299.7 451 278.3 451 257 451C235.7 451 214.3 451 193 451C171.7 451 150.3 451 128.8 451C107.3 451 85.7 451 64.2 451C42.7 451 21.3 451 10.7 451L0 451Z" fill="#0093e9"></path><path d="M0 420L10.7 413.2C21.3 406.3 42.7 392.7 64.2 390.8C85.7 389 107.3 399 128.8 399C150.3 399 171.7 389 193 384.5C214.3 380 235.7 381 257 386.3C278.3 391.7 299.7 401.3 321.2 405.2C342.7 409 364.3 407 385.8 405.3C407.3 403.7 428.7 402.3 450 397.7C471.3 393 492.7 385 514.2 381C535.7 377 557.3 377 578.8 384C600.3 391 621.7 405 643 407.8C664.3 410.7 685.7 402.3 707 402.5C728.3 402.7 749.7 411.3 771.2 411.2C792.7 411 814.3 402 835.8 402.7C857.3 403.3 878.7 413.7 889.3 418.8L900 424L900 451L889.3 451C878.7 451 857.3 451 835.8 451C814.3 451 792.7 451 771.2 451C749.7 451 728.3 451 707 451C685.7 451 664.3 451 643 451C621.7 451 600.3 451 578.8 451C557.3 451 535.7 451 514.2 451C492.7 451 471.3 451 450 451C428.7 451 407.3 451 385.8 451C364.3 451 342.7 451 321.2 451C299.7 451 278.3 451 257 451C235.7 451 214.3 451 193 451C171.7 451 150.3 451 128.8 451C107.3 451 85.7 451 64.2 451C42.7 451 21.3 451 10.7 451L0 451Z" fill="#00a1e7"></path><path d="M0 406L10.7 406.7C21.3 407.3 42.7 408.7 64.2 405.7C85.7 402.7 107.3 395.3 128.8 391.5C150.3 387.7 171.7 387.3 193 394.3C214.3 401.3 235.7 415.7 257 417.3C278.3 419 299.7 408 321.2 407.8C342.7 407.7 364.3 418.3 385.8 419.8C407.3 421.3 428.7 413.7 450 411.3C471.3 409 492.7 412 514.2 413C535.7 414 557.3 413 578.8 409.3C600.3 405.7 621.7 399.3 643 400.3C664.3 401.3 685.7 409.7 707 410.2C728.3 410.7 749.7 403.3 771.2 403.3C792.7 403.3 814.3 410.7 835.8 412C857.3 413.3 878.7 408.7 889.3 406.3L900 404L900 451L889.3 451C878.7 451 857.3 451 835.8 451C814.3 451 792.7 451 771.2 451C749.7 451 728.3 451 707 451C685.7 451 664.3 451 643 451C621.7 451 600.3 451 578.8 451C557.3 451 535.7 451 514.2 451C492.7 451 471.3 451 450 451C428.7 451 407.3 451 385.8 451C364.3 451 342.7 451 321.2 451C299.7 451 278.3 451 257 451C235.7 451 214.3 451 193 451C171.7 451 150.3 451 128.8 451C107.3 451 85.7 451 64.2 451C42.7 451 21.3 451 10.7 451L0 451Z" fill="#00ace2"></path><path d="M0 417L10.7 417C21.3 417 42.7 417 64.2 413.8C85.7 410.7 107.3 404.3 128.8 404.8C150.3 405.3 171.7 412.7 193 417.8C214.3 423 235.7 426 257 422.7C278.3 419.3 299.7 409.7 321.2 406.3C342.7 403 364.3 406 385.8 408C407.3 410 428.7 411 450 411.8C471.3 412.7 492.7 413.3 514.2 415.8C535.7 418.3 557.3 422.7 578.8 421.8C600.3 421 621.7 415 643 410.2C664.3 405.3 685.7 401.7 707 402.8C728.3 404 749.7 410 771.2 409.8C792.7 409.7 814.3 403.3 835.8 400.8C857.3 398.3 878.7 399.7 889.3 400.3L900 401L900 451L889.3 451C878.7 451 857.3 451 835.8 451C814.3 451 792.7 451 771.2 451C749.7 451 728.3 451 707 451C685.7 451 664.3 451 643 451C621.7 451 600.3 451 578.8 451C557.3 451 535.7 451 514.2 451C492.7 451 471.3 451 450 451C428.7 451 407.3 451 385.8 451C364.3 451 342.7 451 321.2 451C299.7 451 278.3 451 257 451C235.7 451 214.3 451 193 451C171.7 451 150.3 451 128.8 451C107.3 451 85.7 451 64.2 451C42.7 451 21.3 451 10.7 451L0 451Z" fill="#00b7db"></path><path d="M0 429L10.7 429.3C21.3 429.7 42.7 430.3 64.2 428C85.7 425.7 107.3 420.3 128.8 418C150.3 415.7 171.7 416.3 193 415.5C214.3 414.7 235.7 412.3 257 411.3C278.3 410.3 299.7 410.7 321.2 410.3C342.7 410 364.3 409 385.8 409.3C407.3 409.7 428.7 411.3 450 414.5C471.3 417.7 492.7 422.3 514.2 422C535.7 421.7 557.3 416.3 578.8 413.5C600.3 410.7 621.7 410.3 643 412.7C664.3 415 685.7 420 707 422.3C728.3 424.7 749.7 424.3 771.2 423.8C792.7 423.3 814.3 422.7 835.8 420.8C857.3 419 878.7 416 889.3 414.5L900 413L900 451L889.3 451C878.7 451 857.3 451 835.8 451C814.3 451 792.7 451 771.2 451C749.7 451 728.3 451 707 451C685.7 451 664.3 451 643 451C621.7 451 600.3 451 578.8 451C557.3 451 535.7 451 514.2 451C492.7 451 471.3 451 450 451C428.7 451 407.3 451 385.8 451C364.3 451 342.7 451 321.2 451C299.7 451 278.3 451 257 451C235.7 451 214.3 451 193 451C171.7 451 150.3 451 128.8 451C107.3 451 85.7 451 64.2 451C42.7 451 21.3 451 10.7 451L0 451Z" fill="#3ec0d3"></path><path d="M0 421L10.7 420.7C21.3 420.3 42.7 419.7 64.2 421.7C85.7 423.7 107.3 428.3 128.8 431.3C150.3 434.3 171.7 435.7 193 434C214.3 432.3 235.7 427.7 257 427C278.3 426.3 299.7 429.7 321.2 429.3C342.7 429 364.3 425 385.8 426C407.3 427 428.7 433 450 435C471.3 437 492.7 435 514.2 431.7C535.7 428.3 557.3 423.7 578.8 421.3C600.3 419 621.7 419 643 421.7C664.3 424.3 685.7 429.7 707 433C728.3 436.3 749.7 437.7 771.2 436.8C792.7 436 814.3 433 835.8 429.7C857.3 426.3 878.7 422.7 889.3 420.8L900 419L900 451L889.3 451C878.7 451 857.3 451 835.8 451C814.3 451 792.7 451 771.2 451C749.7 451 728.3 451 707 451C685.7 451 664.3 451 643 451C621.7 451 600.3 451 578.8 451C557.3 451 535.7 451 514.2 451C492.7 451 471.3 451 450 451C428.7 451 407.3 451 385.8 451C364.3 451 342.7 451 321.2 451C299.7 451 278.3 451 257 451C235.7 451 214.3 451 193 451C171.7 451 150.3 451 128.8 451C107.3 451 85.7 451 64.2 451C42.7 451 21.3 451 10.7 451L0 451Z" fill="#62c9cc"></path><path d="M0 434L10.7 434.2C21.3 434.3 42.7 434.7 64.2 434.7C85.7 434.7 107.3 434.3 128.8 434.8C150.3 435.3 171.7 436.7 193 438.7C214.3 440.7 235.7 443.3 257 443.8C278.3 444.3 299.7 442.7 321.2 441C342.7 439.3 364.3 437.7 385.8 437C407.3 436.3 428.7 436.7 450 436.2C471.3 435.7 492.7 434.3 514.2 435.3C535.7 436.3 557.3 439.7 578.8 440.8C600.3 442 621.7 441 643 439.3C664.3 437.7 685.7 435.3 707 434.7C728.3 434 749.7 435 771.2 436.3C792.7 437.7 814.3 439.3 835.8 440.7C857.3 442 878.7 443 889.3 443.5L900 444L900 451L889.3 451C878.7 451 857.3 451 835.8 451C814.3 451 792.7 451 771.2 451C749.7 451 728.3 451 707 451C685.7 451 664.3 451 643 451C621.7 451 600.3 451 578.8 451C557.3 451 535.7 451 514.2 451C492.7 451 471.3 451 450 451C428.7 451 407.3 451 385.8 451C364.3 451 342.7 451 321.2 451C299.7 451 278.3 451 257 451C235.7 451 214.3 451 193 451C171.7 451 150.3 451 128.8 451C107.3 451 85.7 451 64.2 451C42.7 451 21.3 451 10.7 451L0 451Z" fill="#80d0c7"></path></svg>